Coordinates
version=1
nRows=9
nColumns=24
inDegrees=yes

Units are S.I. units (second, meters, Newtons, ...)
Angles are in degrees.

endheader
time	pelvis_tilt	pelvis_list	pelvis_rotation	pelvis_tx	pelvis_ty	pelvis_tz	hip_flexion_r	hip_adduction_r	hip_rotation_r	knee_angle_r	ankle_angle_r	subtalar_angle_r	mtp_angle_r	hip_flexion_l	hip_adduction_l	hip_rotation_l	knee_angle_l	ankle_angle_l	subtalar_angle_l	mtp_angle_l	lumbar_extension	lumbar_bending	lumbar_rotation
      7.21500000	     37.63083939	      4.63317311	      6.12168480	      1.99685301	      0.67919147	     -0.18323949	    -32.33699851	      2.62941939	     -8.45068443	    -11.96420497	     17.58641999	      8.40871499	      0.00000000	    -22.49386784	     -4.47680040	     -5.78107753	    -64.06310958	      7.45056204	     -1.20182528	      0.00000000	    -62.06519799	      0.51744246	     -3.24965905
      7.22000000	     37.59563603	      4.66773233	      5.88385056	      2.00153112	      0.67953420	     -0.18292911	    -32.91334581	      2.55439797	     -8.30355492	    -11.62791686	     17.79228733	      8.53682839	      0.00000000	    -21.68691721	     -4.14103556	     -6.09171222	    -63.90122476	      7.97466481	     -0.79743568	      0.00000000	    -62.06872065	      0.35492093	     -3.06958838
      7.22500000	     37.55525968	      4.72170004	      5.67019104	      2.00617362	      0.67981812	     -0.18263731	    -33.47776484	      2.47141023	     -8.23937810	    -11.30247400	     17.99037954	      8.61800155	      0.00000000	    -20.87942661	     -3.79713124	     -6.38404520	    -63.66918497	      8.47384183	     -0.40158496	      0.00000000	    -62.07908860	      0.18534536	     -2.90948057
      7.23000000	     37.51884787	      4.75213081	      5.45783673	      2.01081329	      0.68005815	     -0.18239767	    -34.03879333	      2.40246316	     -8.13043871	    -10.98592962	     18.21143501	      8.74869683	      0.00000000	    -20.09561809	     -3.46801895	     -6.66476749	    -63.35149426	      8.93470219	      0.04639259	      0.00000000	    -62.09695706	      0.04811245	     -2.75030335
      7.23500000	     37.47629470	      4.80291526	      5.27562235	      2.01541708	      0.68023550	     -0.18221554	    -34.58643677	      2.32612036	     -8.10854825	    -10.68287387	     18.41208479	      8.81291695	      0.00000000	    -19.31026080	     -3.12224412	     -6.91815475	    -62.96689944	      9.37219463	      0.42260769	      0.00000000	    -62.11038176	     -0.07240500	     -2.59802826
      7.24000000	     37.43825112	      4.83842633	      5.09068665	      2.01999096	      0.68036367	     -0.18197037	    -35.12303951	      2.26544978	     -8.05665376	    -10.39937614	     18.63691077	      8.94354726	      0.00000000	    -18.54563273	     -2.80174274	     -7.16442403	    -62.50041669	      9.77719486	      0.87753864	      0.00000000	    -62.14693663	     -0.21654771	     -2.46279541
      7.24500000	     37.40487380	      4.86740642	      4.91226675	      2.02456880	      0.68044267	     -0.18182231	    -35.66173071	      2.20289950	     -8.02445952	    -10.12346055	     18.86598206	      9.06026118	      0.00000000	    -17.80787149	     -2.47730776	     -7.40344069	    -61.95349249	     10.14262982	      1.28493245	      0.00000000	    -62.17748274	     -0.31559645	     -2.31660275
      7.25000000	     37.36558241	      4.89348857	      4.76705675	      2.02911770	      0.68046662	     -0.18170534	    -36.18213512	      2.16194585	     -8.03160309	     -9.86653836	     19.08406358	      9.13128088	      0.00000000	    -17.07750813	     -2.16260197	     -7.61150566	    -61.32535747	     10.47861376	      1.61598232	      0.00000000	    -62.20443567	     -0.38539338	     -2.17198063
      7.25500000	     37.32716886	      4.90839303	      4.60927623	      2.03366189	      0.68043867	     -0.18157715	    -36.69666225	      2.12032555	     -8.03723008	     -9.61705917	     19.32255271	      9.24554694	      0.00000000	    -16.37157209	     -1.85690490	     -7.81843663	    -60.61885440	     10.78377182	      1.99561185	      0.00000000	    -62.24209297	     -0.47365769	     -2.03971150
